<?xml version="1.0" standalone="no"?>
<!DOCTYPE svg PUBLIC "-//W3C//DTD SVG 20010904//EN"
 "http://www.w3.org/TR/2001/REC-SVG-20010904/DTD/svg10.dtd">
<svg version="1.0" xmlns="http://www.w3.org/2000/svg"
 width="6667.000000pt" height="6667.000000pt" viewBox="0 0 6667.000000 6667.000000"
 preserveAspectRatio="xMidYMid meet">

<g transform="translate(0.000000,6667.000000) scale(0.100000,-0.100000)"
fill="#000000" stroke="none">
<path d="M26359 38096 c-2 -2 -125 -6 -274 -10 -148 -3 -286 -8 -305 -10 -19
-2 -84 -7 -145 -11 -201 -11 -653 -61 -875 -95 -367 -58 -564 -94 -850 -157
-1438 -315 -2768 -864 -3875 -1598 -1152 -764 -1996 -1694 -2399 -2642 -275
-648 -350 -1273 -225 -1888 298 -1470 1762 -2567 3924 -2940 203 -35 524 -78
670 -90 44 -4 90 -8 101 -10 12 -2 77 -6 145 -10 68 -4 133 -10 144 -12 41
-10 957 -12 1125 -3 804 45 1548 156 2310 345 1259 312 2405 793 3417 1434
l52 33 53 -45 c193 -164 485 -302 755 -357 191 -38 312 -42 1393 -37 1124 4
1086 3 1321 62 106 27 265 83 330 116 l37 18 78 -44 c150 -86 300 -130 494
-146 81 -7 541 -9 1305 -6 1284 4 1228 2 1466 62 174 44 414 145 549 230 l36
23 55 -35 c170 -108 410 -204 616 -244 101 -19 160 -21 938 -30 992 -12 1232
-9 1400 20 158 28 305 69 438 124 l107 45 77 -44 c92 -52 217 -99 338 -126 79
-18 135 -21 474 -25 423 -5 551 2 703 43 167 45 365 148 475 248 l39 35 50
-41 c159 -133 347 -217 584 -260 108 -20 143 -21 595 -19 472 2 596 8 704 36
50 13 62 12 130 -5 42 -11 117 -24 166 -30 123 -14 2838 -13 2960 0 255 29
480 133 665 307 148 139 260 316 315 496 13 45 55 249 92 452 67 365 68 372
67 535 -1 144 -4 177 -28 265 -28 108 -95 256 -155 345 l-37 55 11 64 c8 39
18 67 29 73 41 23 165 131 208 181 111 129 195 277 242 425 14 46 56 246 93
445 62 337 67 372 68 507 0 161 -12 240 -57 370 -137 395 -486 681 -902 739
-125 18 -2925 15 -3041 -3 -146 -22 -250 -55 -382 -121 l-124 -62 -99 43
c-127 56 -265 97 -426 126 l-129 23 -1300 0 -1300 0 -100 -22 c-55 -12 -118
-29 -140 -36 -35 -12 -46 -11 -112 10 -152 48 -217 53 -657 53 -453 0 -528 -7
-688 -60 -177 -60 -326 -149 -458 -277 l-86 -82 -74 76 c-170 172 -392 287
-634 328 -69 12 -177 15 -491 15 -440 0 -513 -7 -673 -60 l-83 -28 -75 24
c-172 55 -149 54 -1450 54 -1315 0 -1313 0 -1545 -59 -157 -39 -290 -91 -445
-171 l-131 -67 -54 34 c-143 91 -348 179 -520 223 -176 45 -252 50 -851 50
l-566 0 -23 68 c-92 276 -261 597 -440 834 -164 218 -410 469 -639 652 -906
725 -2291 1176 -3855 1255 -238 12 -620 23 -626 17z m526 -426 c2039 -98 3635
-788 4358 -1885 71 -109 201 -357 240 -461 l16 -41 -312 -6 c-252 -4 -335 -9
-432 -26 -123 -21 -290 -65 -380 -100 -65 -25 -62 -26 -290 154 -332 262 -522
384 -830 535 -835 409 -1889 605 -3065 569 -538 -16 -1007 -71 -1550 -179
-1506 -302 -2843 -911 -3871 -1766 -188 -156 -560 -526 -692 -689 -446 -550
-692 -1052 -788 -1610 -27 -154 -36 -467 -20 -626 113 -1076 972 -1949 2341
-2379 225 -71 223 -70 175 -64 -116 13 -461 70 -610 100 -1767 360 -2984 1240
-3314 2394 -74 258 -96 444 -88 748 5 234 21 353 78 580 365 1473 1943 2949
4119 3855 1242 516 2636 832 3965 896 250 12 710 12 950 1z m95 -1684 c19 -3
94 -10 165 -16 647 -54 1324 -222 1835 -456 l85 -39 -1155 -5 -1155 -6 -105
-26 c-58 -14 -140 -39 -183 -55 l-79 -28 -99 32 c-110 36 -250 67 -379 83
-112 13 -2201 14 -2325 0 -49 -6 -125 -17 -168 -26 -43 -9 -81 -13 -84 -11 -6
6 435 152 622 206 655 188 1328 303 2045 350 130 9 918 6 980 -3z m-4325 -834
c-6 -5 -51 -37 -101 -70 -445 -302 -776 -769 -915 -1292 -29 -110 -326 -1760
-339 -1880 -59 -577 145 -1155 550 -1560 292 -292 663 -477 1101 -547 91 -14
234 -17 1114 -20 1053 -4 1217 0 1421 37 293 53 587 171 839 338 l120 79 80
-74 c104 -96 231 -183 354 -242 l99 -47 -46 -18 c-140 -52 -511 -174 -672
-221 -670 -194 -1390 -318 -2065 -355 -247 -14 -782 -10 -1005 6 -1263 94
-2294 482 -2910 1094 -668 664 -791 1543 -341 2440 434 863 1362 1682 2576
2272 142 68 157 75 140 60z m2848 -689 c247 -70 422 -241 488 -478 44 -158 40
-193 -120 -1075 -78 -432 -151 -823 -162 -870 -24 -103 -99 -260 -168 -351
-63 -82 -179 -193 -261 -249 -87 -59 -229 -124 -330 -152 l-85 -23 -1075 0
-1075 0 -75 23 c-126 40 -207 88 -295 177 -92 91 -142 176 -176 300 -42 155
-39 185 125 1090 81 446 154 837 162 870 21 82 94 233 151 313 129 181 334
332 548 402 144 48 165 48 1250 47 1018 -2 1020 -2 1098 -24z m7227 3 c36 -10
103 -36 150 -58 69 -33 101 -56 171 -127 70 -70 94 -102 128 -172 100 -207 97
-268 -43 -1039 -59 -322 -125 -684 -147 -805 -21 -121 -49 -249 -60 -285 -113
-347 -437 -630 -806 -705 -69 -14 -203 -15 -1128 -12 -1171 3 -1089 -2 -1239
73 -175 88 -288 222 -347 414 -20 62 -24 96 -23 200 0 117 10 177 147 930 81
443 156 837 168 875 11 39 41 108 65 155 157 304 460 519 799 569 33 5 519 8
1080 7 952 -2 1024 -3 1085 -20z m5552 14 c21 -6 51 -22 68 -36 63 -53 69 2
-141 -1156 -105 -579 -191 -1071 -191 -1092 -1 -31 5 -45 26 -63 l27 -23 667
0 c632 0 668 1 695 19 15 10 35 28 44 40 9 14 87 421 208 1090 141 777 199
1080 214 1110 27 53 88 97 154 111 35 8 156 10 362 8 276 -3 314 -5 343 -21
44 -24 72 -72 72 -124 0 -44 -390 -2213 -416 -2318 -86 -335 -399 -641 -754
-737 l-85 -23 -970 0 c-1091 0 -1027 -4 -1195 77 -69 33 -101 57 -171 127 -70
70 -94 102 -127 171 -22 47 -47 117 -56 157 -32 145 -31 156 189 1378 113 627
211 1153 217 1169 24 61 87 115 158 137 39 11 619 10 662 -1z m-8840 -10 c41
-12 94 -66 105 -108 8 -33 -81 -541 -102 -582 -8 -16 -32 -45 -52 -65 -65 -63
-82 -65 -594 -65 -359 0 -459 -3 -467 -13 -6 -7 -99 -501 -206 -1097 -108
-597 -200 -1102 -206 -1123 -14 -49 -74 -115 -125 -138 -36 -17 -73 -19 -390
-19 -332 0 -352 1 -383 20 -44 27 -72 76 -71 125 0 22 89 531 198 1130 109
600 196 1095 193 1102 -3 9 -118 13 -480 15 -530 3 -520 2 -562 71 -28 46 -26
88 25 365 48 262 60 295 126 344 65 49 9 47 1529 48 938 0 1438 -4 1462 -10z
m7396 -13 c44 -24 72 -72 72 -125 0 -61 -86 -526 -104 -559 -18 -35 -61 -75
-106 -99 -33 -18 -85 -19 -1065 -24 -960 -5 -1033 -6 -1058 -22 -14 -10 -32
-28 -38 -40 -21 -39 -59 -265 -50 -291 21 -54 -21 -52 865 -57 l821 -5 70 -24
c39 -13 99 -38 135 -56 222 -112 360 -344 360 -606 0 -98 -66 -478 -101 -581
-68 -200 -226 -404 -409 -528 -84 -57 -230 -125 -326 -153 l-79 -22 -1200 -3
c-1365 -3 -1248 -10 -1294 83 l-25 48 43 236 c68 376 74 393 169 448 l47 28
1060 5 c835 4 1065 8 1082 18 34 19 52 62 70 170 16 94 16 101 0 126 -10 15
-29 31 -43 36 -15 6 -335 10 -807 10 -744 0 -786 1 -864 20 -199 47 -372 182
-452 351 -89 186 -95 306 -32 642 45 240 63 302 120 416 152 302 478 532 810
571 36 4 568 7 1181 6 1053 -1 1117 -2 1148 -19z m7187 0 c90 -26 213 -89 273
-138 161 -131 251 -347 239 -568 -6 -107 -137 -846 -169 -949 -23 -78 -83
-201 -129 -269 -44 -64 -180 -205 -242 -251 -28 -20 -82 -55 -120 -77 -39 -22
-74 -47 -80 -55 -7 -12 40 -101 192 -365 216 -376 221 -387 181 -452 -38 -63
-39 -63 -488 -70 -224 -3 -433 -3 -464 1 -103 13 -103 13 -304 404 -99 194
-190 363 -203 375 -21 22 -25 22 -399 25 -207 2 -387 0 -398 -3 -12 -2 -25
-12 -28 -21 -3 -8 -29 -142 -56 -297 -63 -352 -69 -372 -117 -419 -69 -67 -73
-68 -458 -68 -372 0 -374 0 -424 54 -16 17 -25 41 -28 73 -6 67 510 2919 537
2974 23 43 74 88 122 106 25 9 331 11 1268 10 1147 -2 1239 -3 1295 -20z
m4080 -2 c18 -17 25 -35 25 -62 0 -46 -107 -639 -119 -662 -5 -9 -21 -27 -36
-41 l-27 -25 -978 -5 c-633 -3 -982 -9 -989 -15 -13 -13 -74 -361 -66 -375 4
-7 261 -10 785 -10 l780 0 31 -28 c23 -21 31 -36 31 -62 0 -57 -102 -590 -118
-622 -9 -17 -33 -37 -57 -49 -40 -18 -77 -19 -819 -19 -492 0 -779 -4 -783
-10 -12 -20 -65 -344 -58 -351 5 -5 444 -10 975 -11 l966 -3 26 -24 c19 -18
26 -35 26 -63 0 -59 -110 -659 -127 -691 -7 -15 -28 -37 -46 -47 -31 -20 -61
-20 -1425 -20 -1529 0 -1421 -4 -1476 60 -21 25 -26 42 -26 83 0 47 496 2817
522 2917 14 54 69 117 123 141 38 18 107 19 1438 19 l1398 0 24 -25z"/>
<path d="M23435 33617 c-19 -19 -36 -45 -39 -58 -15 -67 -246 -1362 -246
-1380 0 -11 13 -34 29 -50 l29 -29 727 0 c794 0 774 -1 812 57 15 23 263 1355
263 1414 0 15 -9 38 -21 53 l-20 26 -751 0 -750 0 -33 -33z"/>
<path d="M30703 33641 c-28 -13 -48 -31 -58 -53 -9 -18 -71 -341 -139 -718
-113 -622 -123 -688 -111 -717 7 -17 22 -36 33 -42 14 -8 246 -11 749 -11 704
0 729 1 760 20 43 26 61 56 73 121 5 30 62 342 125 694 124 686 123 679 71
707 -15 9 -221 13 -741 15 -701 4 -721 3 -762 -16z"/>
<path d="M42170 33633 c-15 -53 -130 -697 -130 -728 0 -17 7 -26 23 -30 12 -3
297 -5 632 -3 552 3 613 5 641 20 35 19 89 77 98 105 14 44 96 510 96 545 0
21 -7 52 -15 68 -32 62 -13 60 -704 60 l-630 0 -11 -37z"/>
</g>
</svg>
